<mxfile host="app.diagrams.net" modified="2020-12-17T03:58:44.262Z" agent="5.0 (Windows NT 10.0; Win64; x64) AppleWebKit/537.36 (KHTML, like Gecko) Chrome/87.0.4280.88 Safari/537.36 Edg/87.0.664.60" etag="g6n-HUqXLXqaDEk8o4sh" version="14.0.4" type="github">
  <diagram id="j-jNek8Vs6Zp0OdATfKV" name="Page-1">
    <mxGraphModel dx="1038" dy="500" grid="1" gridSize="10" guides="1" tooltips="1" connect="1" arrows="1" fold="1" page="1" pageScale="1" pageWidth="850" pageHeight="1100" math="0" shadow="0">
      <root>
        <mxCell id="0" />
        <mxCell id="1" parent="0" />
        <mxCell id="PXqKB6OC3jWqqJZbwXuf-1" value="User" style="shape=umlActor;verticalLabelPosition=bottom;verticalAlign=top;html=1;outlineConnect=0;" vertex="1" parent="1">
          <mxGeometry x="80" y="280" width="30" height="60" as="geometry" />
        </mxCell>
        <mxCell id="PXqKB6OC3jWqqJZbwXuf-2" value="&lt;&lt;boundary&gt;&gt;&#xa;V_ContactPage" style="swimlane;fontStyle=1;align=center;verticalAlign=top;childLayout=stackLayout;horizontal=1;startSize=40;horizontalStack=0;resizeParent=1;resizeParentMax=0;resizeLast=0;collapsible=1;marginBottom=0;" vertex="1" parent="1">
          <mxGeometry x="230" y="250" width="160" height="174" as="geometry" />
        </mxCell>
        <mxCell id="PXqKB6OC3jWqqJZbwXuf-3" value="+ DiaChiCacChiNhanhCT&#xa;+ Ten: String&#xa;+ SoDienThoai: String&#xa;+ DiaChi: String&#xa;+ Chu De: String&#xa;+ NoiDung: String" style="text;strokeColor=none;fillColor=none;align=left;verticalAlign=top;spacingLeft=4;spacingRight=4;overflow=hidden;rotatable=0;points=[[0,0.5],[1,0.5]];portConstraint=eastwest;" vertex="1" parent="PXqKB6OC3jWqqJZbwXuf-2">
          <mxGeometry y="40" width="160" height="100" as="geometry" />
        </mxCell>
        <mxCell id="PXqKB6OC3jWqqJZbwXuf-4" value="" style="line;strokeWidth=1;fillColor=none;align=left;verticalAlign=middle;spacingTop=-1;spacingLeft=3;spacingRight=3;rotatable=0;labelPosition=right;points=[];portConstraint=eastwest;" vertex="1" parent="PXqKB6OC3jWqqJZbwXuf-2">
          <mxGeometry y="140" width="160" height="8" as="geometry" />
        </mxCell>
        <mxCell id="PXqKB6OC3jWqqJZbwXuf-5" value=" " style="text;strokeColor=none;fillColor=none;align=left;verticalAlign=top;spacingLeft=4;spacingRight=4;overflow=hidden;rotatable=0;points=[[0,0.5],[1,0.5]];portConstraint=eastwest;" vertex="1" parent="PXqKB6OC3jWqqJZbwXuf-2">
          <mxGeometry y="148" width="160" height="26" as="geometry" />
        </mxCell>
        <mxCell id="PXqKB6OC3jWqqJZbwXuf-6" value="&lt;&lt;control&gt;&gt;&#xa;C_ContactPage" style="swimlane;fontStyle=1;align=center;verticalAlign=top;childLayout=stackLayout;horizontal=1;startSize=40;horizontalStack=0;resizeParent=1;resizeParentMax=0;resizeLast=0;collapsible=1;marginBottom=0;" vertex="1" parent="1">
          <mxGeometry x="510" y="260" width="160" height="100" as="geometry" />
        </mxCell>
        <mxCell id="PXqKB6OC3jWqqJZbwXuf-7" value=" " style="text;strokeColor=none;fillColor=none;align=left;verticalAlign=top;spacingLeft=4;spacingRight=4;overflow=hidden;rotatable=0;points=[[0,0.5],[1,0.5]];portConstraint=eastwest;" vertex="1" parent="PXqKB6OC3jWqqJZbwXuf-6">
          <mxGeometry y="40" width="160" height="26" as="geometry" />
        </mxCell>
        <mxCell id="PXqKB6OC3jWqqJZbwXuf-8" value="" style="line;strokeWidth=1;fillColor=none;align=left;verticalAlign=middle;spacingTop=-1;spacingLeft=3;spacingRight=3;rotatable=0;labelPosition=right;points=[];portConstraint=eastwest;" vertex="1" parent="PXqKB6OC3jWqqJZbwXuf-6">
          <mxGeometry y="66" width="160" height="8" as="geometry" />
        </mxCell>
        <mxCell id="PXqKB6OC3jWqqJZbwXuf-9" value="+ openContactPage()" style="text;strokeColor=none;fillColor=none;align=left;verticalAlign=top;spacingLeft=4;spacingRight=4;overflow=hidden;rotatable=0;points=[[0,0.5],[1,0.5]];portConstraint=eastwest;" vertex="1" parent="PXqKB6OC3jWqqJZbwXuf-6">
          <mxGeometry y="74" width="160" height="26" as="geometry" />
        </mxCell>
        <mxCell id="PXqKB6OC3jWqqJZbwXuf-10" value="" style="endArrow=classic;html=1;entryX=0.005;entryY=0.146;entryDx=0;entryDy=0;entryPerimeter=0;" edge="1" parent="1" source="PXqKB6OC3jWqqJZbwXuf-1" target="PXqKB6OC3jWqqJZbwXuf-3">
          <mxGeometry width="50" height="50" relative="1" as="geometry">
            <mxPoint x="400" y="280" as="sourcePoint" />
            <mxPoint x="240" y="300" as="targetPoint" />
          </mxGeometry>
        </mxCell>
        <mxCell id="PXqKB6OC3jWqqJZbwXuf-11" value="" style="endArrow=classic;html=1;exitX=1.01;exitY=0.162;exitDx=0;exitDy=0;exitPerimeter=0;entryX=0;entryY=0.238;entryDx=0;entryDy=0;entryPerimeter=0;" edge="1" parent="1" source="PXqKB6OC3jWqqJZbwXuf-3" target="PXqKB6OC3jWqqJZbwXuf-7">
          <mxGeometry width="50" height="50" relative="1" as="geometry">
            <mxPoint x="400" y="280" as="sourcePoint" />
            <mxPoint x="450" y="230" as="targetPoint" />
          </mxGeometry>
        </mxCell>
      </root>
    </mxGraphModel>
  </diagram>
</mxfile>
